<?xml version="1.0" encoding="UTF-8"?>
<svg width="900" height="440" viewBox="0 0 900 440" xmlns="http://www.w3.org/2000/svg">
  <defs>
    <marker id="arr" markerWidth="8" markerHeight="6" refX="7" refY="3" orient="auto">
      <polygon points="0 0, 8 3, 0 6" fill="#6366f1"/>
    </marker>
  </defs>

  <rect width="900" height="440" fill="#0d0d0d"/>

  <!-- Title -->
  <text x="450" y="40" text-anchor="middle" fill="#f9fafb" font-size="18" font-weight="700" font-family="system-ui,sans-serif" letter-spacing="-0.3">Peek — On-Device AI Architecture</text>
  <text x="450" y="62" text-anchor="middle" fill="#6b7280" font-size="11" font-family="system-ui,sans-serif">QVAC SDK · React Native · Expo SDK 54 · Android</text>

  <!-- ── LEFT: Modules ── -->
  <rect x="25" y="82" width="196" height="260" rx="10" fill="#111111" stroke="#252525" stroke-width="1.5"/>
  <rect x="25" y="82" width="196" height="36" rx="10" fill="#1c1c1c"/>
  <rect x="25" y="106" width="196" height="12" fill="#1c1c1c"/>
  <text x="123" y="105" text-anchor="middle" fill="#818cf8" font-size="9" font-weight="700" font-family="system-ui,sans-serif" letter-spacing="1.5">MODULES</text>

  <circle cx="44" cy="135" r="3" fill="#6366f1"/>
  <text x="56" y="139" fill="#e5e7eb" font-size="13" font-family="system-ui,sans-serif">Peek Lens</text>
  <circle cx="44" cy="160" r="3" fill="#6366f1"/>
  <text x="56" y="164" fill="#e5e7eb" font-size="13" font-family="system-ui,sans-serif">Peek Voice</text>
  <circle cx="44" cy="185" r="3" fill="#6366f1"/>
  <text x="56" y="189" fill="#e5e7eb" font-size="13" font-family="system-ui,sans-serif">Peek Scribe</text>
  <circle cx="44" cy="210" r="3" fill="#6366f1"/>
  <text x="56" y="214" fill="#e5e7eb" font-size="13" font-family="system-ui,sans-serif">Peek Deep</text>
  <circle cx="44" cy="235" r="3" fill="#6366f1"/>
  <text x="56" y="239" fill="#e5e7eb" font-size="13" font-family="system-ui,sans-serif">AI Chat</text>
  <circle cx="44" cy="260" r="3" fill="#6366f1"/>
  <text x="56" y="264" fill="#e5e7eb" font-size="13" font-family="system-ui,sans-serif">Map Search</text>
  <circle cx="44" cy="285" r="3" fill="#6366f1"/>
  <text x="56" y="289" fill="#e5e7eb" font-size="13" font-family="system-ui,sans-serif">Peel Fun</text>

  <!-- Arrow: Modules → SDK -->
  <line x1="223" y1="212" x2="279" y2="212" stroke="#6366f1" stroke-width="1.5" stroke-dasharray="4 2" marker-end="url(#arr)"/>

  <!-- ── CENTER: QVAC SDK ── -->
  <rect x="283" y="82" width="256" height="260" rx="10" fill="#0f1729" stroke="#6366f1" stroke-width="1.5"/>
  <rect x="283" y="82" width="256" height="260" rx="10" fill="none" stroke="#818cf8" stroke-width="8" opacity="0.06"/>
  <rect x="283" y="82" width="256" height="36" rx="10" fill="#141f35"/>
  <rect x="283" y="106" width="256" height="12" fill="#141f35"/>
  <text x="411" y="105" text-anchor="middle" fill="#818cf8" font-size="9" font-weight="700" font-family="system-ui,sans-serif" letter-spacing="1.5">QVAC SDK</text>

  <text x="306" y="137" fill="#c7d2fe" font-size="12" font-family="'Courier New',Courier,monospace">completion()</text>
  <text x="306" y="159" fill="#c7d2fe" font-size="12" font-family="'Courier New',Courier,monospace">transcribeStream()</text>
  <text x="306" y="181" fill="#c7d2fe" font-size="12" font-family="'Courier New',Courier,monospace">ragIngest / ragSearch()</text>
  <text x="306" y="203" fill="#c7d2fe" font-size="12" font-family="'Courier New',Courier,monospace">Tool Calling</text>
  <text x="306" y="225" fill="#c7d2fe" font-size="12" font-family="'Courier New',Courier,monospace">cancel({ requestId })</text>
  <text x="306" y="247" fill="#c7d2fe" font-size="12" font-family="'Courier New',Courier,monospace">llmManager.ensure()</text>
  <text x="306" y="269" fill="#c7d2fe" font-size="12" font-family="'Courier New',Courier,monospace">run.stats</text>

  <!-- Arrow: SDK → Models -->
  <line x1="541" y1="212" x2="597" y2="212" stroke="#6366f1" stroke-width="1.5" stroke-dasharray="4 2" marker-end="url(#arr)"/>

  <!-- ── RIGHT: Models ── -->
  <rect x="601" y="82" width="200" height="260" rx="10" fill="#111111" stroke="#252525" stroke-width="1.5"/>
  <rect x="601" y="82" width="200" height="36" rx="10" fill="#1c1c1c"/>
  <rect x="601" y="106" width="200" height="12" fill="#1c1c1c"/>
  <text x="701" y="105" text-anchor="middle" fill="#34d399" font-size="9" font-weight="700" font-family="system-ui,sans-serif" letter-spacing="1">ON-DEVICE MODELS</text>

  <!-- MedPsy 1.7B card -->
  <rect x="617" y="120" width="168" height="78" rx="8" fill="#0a1a0f" stroke="#34d399" stroke-width="1"/>
  <text x="701" y="140" text-anchor="middle" fill="#34d399" font-size="10" font-weight="700" font-family="system-ui,sans-serif">MedPsy 1.7B</text>
  <text x="701" y="157" text-anchor="middle" fill="#e5e7eb" font-size="11" font-family="system-ui,sans-serif">Voice · Chat · Scribe</text>
  <text x="701" y="173" text-anchor="middle" fill="#4b5563" font-size="10" font-family="system-ui,sans-serif">default model · ~1 GB</text>
  <rect x="617" y="120" width="52" height="16" rx="4" fill="#34d399"/>
  <text x="643" y="132" text-anchor="middle" fill="#000" font-size="8" font-weight="700" font-family="system-ui,sans-serif">DEFAULT</text>

  <!-- MedPsy 4B card -->
  <rect x="617" y="212" width="168" height="78" rx="8" fill="#111111" stroke="#252525" stroke-width="1"/>
  <text x="701" y="232" text-anchor="middle" fill="#e5e7eb" font-size="10" font-weight="700" font-family="system-ui,sans-serif">MedPsy 4B</text>
  <text x="701" y="249" text-anchor="middle" fill="#9ca3af" font-size="11" font-family="system-ui,sans-serif">Deep · Lens · Research</text>
  <text x="701" y="265" text-anchor="middle" fill="#4b5563" font-size="10" font-family="system-ui,sans-serif">specialist · 2.7 GB</text>

  <!-- Bottom banner -->
  <rect x="25" y="366" width="850" height="44" rx="8" fill="#0a1628" stroke="#1e3a5f" stroke-width="1"/>
  <circle cx="52" cy="388" r="5" fill="#10b981"/>
  <text x="70" y="393" fill="#9ca3af" font-size="12" font-family="system-ui,sans-serif">All AI inference runs on your device via the QVAC native runtime — no data ever leaves your phone</text>
</svg>
